<svg xmlns="http://www.w3.org/2000/svg" viewBox="0 0 24.36 24">
  <path fill="currentColor"
    d="M20.79,3.41C18.49,1.21,15.43,0,12.18,0S5.88,1.21,3.58,3.41C1.27,5.61,0,8.55,0,11.67s1.27,6.06,3.58,8.27c2.3,2.2,5.36,3.41,8.6,3.41,1.63,0,3.25-.31,4.76-.92l4.31,1.54h0c.23,.08,.49,.03,.67-.12,.19-.16,.27-.4,.23-.65l-.72-3.92c1.89-2.11,2.93-4.8,2.93-7.6,0-3.12-1.27-6.06-3.58-8.27h0Z" />
  <path
    d="M20.79,3.41C18.49,1.21,15.43,0,12.18,0S5.88,1.21,3.58,3.41C1.27,5.61,0,8.55,0,11.67s1.27,6.06,3.58,8.27c2.3,2.2,5.36,3.41,8.6,3.41,1.63,0,3.25-.31,4.76-.92l4.31,1.54h0c.23,.08,.49,.03,.67-.12,.19-.16,.27-.4,.23-.65l-.72-3.92c1.89-2.11,2.93-4.8,2.93-7.6,0-3.12-1.27-6.06-3.58-8.27h0Zm-.58,15.18c-.15,.16-.22,.38-.18,.6l.57,3.09-3.44-1.23h0c-.16-.06-.34-.05-.5,.02-1.41,.61-2.93,.92-4.46,.92-5.96,0-10.81-4.62-10.81-10.3S6.22,1.37,12.18,1.37s10.81,4.62,10.81,10.3c0,2.56-.99,5.01-2.79,6.91h0Z" />
</svg>