<?xml version="1.0" encoding="UTF-8"?>
<svg id="Layer_1" data-name="Layer 1" xmlns="http://www.w3.org/2000/svg" viewBox="0 0 24 24">
  <path d="M12.08,13.72c-1.16,0-2.29-.34-3.26-.99-.96-.64-1.72-1.56-2.16-2.63-.44-1.07-.56-2.25-.33-3.38,.23-1.14,.78-2.18,1.6-3s1.86-1.38,3-1.6c1.14-.23,2.31-.11,3.39,.33,1.07,.44,1.99,1.19,2.63,2.16,.64,.96,.99,2.1,.99,3.25,0,1.55-.62,3.04-1.72,4.14-1.1,1.1-2.59,1.72-4.14,1.72Z"/>
  <path d="M19.03,22.03H5.13c-.38,0-.75-.1-1.07-.29-.33-.19-.59-.47-.78-.8-.19-.33-.29-.71-.28-1.09,0-.38,.11-.75,.31-1.08,1.49-2.47,4.93-4.06,8.77-4.06s7.28,1.6,8.77,4.06c.2,.32,.3,.69,.31,1.07,0,.38-.09,.75-.27,1.08-.19,.33-.45,.61-.78,.8-.33,.19-.7,.29-1.08,.29Z"/>
</svg>