<?xml version="1.0" encoding="UTF-8"?>
<svg id="Layer_1" data-name="Layer 1" xmlns="http://www.w3.org/2000/svg" viewBox="0 0 24 24">
  <path d="M20.53,19.47l-2.67-2.67c-.06-.06-.12-.09-.19-.13,1.28-1.5,2.05-3.44,2.05-5.56,0-4.75-3.86-8.61-8.61-8.61S2.5,6.36,2.5,11.11s3.86,8.61,8.61,8.61c2.12,0,4.06-.77,5.56-2.05,.03,.07,.07,.13,.13,.19l2.67,2.67c.15,.15,.34,.22,.53,.22s.38-.07,.53-.22c.29-.29,.29-.77,0-1.06Zm-9.42-1.25c-3.92,0-7.11-3.19-7.11-7.11s3.19-7.11,7.11-7.11,7.11,3.19,7.11,7.11-3.19,7.11-7.11,7.11Z"/>
</svg>