<?xml version="1.0" encoding="UTF-8"?>
<svg id="Layer_1" data-name="Layer 1" xmlns="http://www.w3.org/2000/svg" viewBox="0 0 24 24">
  <defs>
    <style>
      .cls-1 {
        fill-rule: evenodd;
      }
    </style>
  </defs>
  <path class="cls-1" d="M3.41,3.41c-1.41,1.41-1.41,3.67-1.41,8.19v.8c0,4.53,0,6.79,1.41,8.19,1.41,1.41,3.67,1.41,8.19,1.41h.8c4.53,0,6.79,0,8.19-1.41,1.41-1.41,1.41-3.67,1.41-8.19v-.8c0-4.53,0-6.79-1.41-8.19-1.41-1.41-3.67-1.41-8.19-1.41h-.8c-4.53,0-6.79,0-8.19,1.41Zm1.93,4.72c.11,5.2,2.84,8.33,7.34,8.33h.26v-2.98c1.64,.17,2.86,1.39,3.36,2.98h2.37c-.64-2.37-2.31-3.68-3.34-4.18,1.03-.62,2.5-2.12,2.84-4.15h-2.15c-.45,1.66-1.79,3.16-3.08,3.3v-3.3h-2.19v5.77c-1.33-.33-3.07-1.95-3.14-5.77h-2.28Z"/>
</svg>