<?xml version="1.0" encoding="UTF-8"?>
<svg id="Layer_1" data-name="Layer 1" xmlns="http://www.w3.org/2000/svg" viewBox="0 0 44 44">
  <defs>
    <style>
      .cls-1 {
        fill-rule: evenodd;
      }
    </style>
  </defs>
  <path class="cls-1" d="M33.02,21.74c-2.16-4.77-6.37-7.74-10.98-7.74s-8.81,2.97-10.98,7.74c-.04,.08-.06,.17-.06,.26s.02,.18,.06,.26c2.16,4.77,6.37,7.74,10.98,7.74s8.82-2.97,10.98-7.74c.04-.08,.06-.17,.06-.26s-.02-.18-.06-.26Zm-10.98,4.54c-.85,0-1.68-.25-2.38-.72-.7-.47-1.25-1.14-1.58-1.92-.32-.78-.41-1.64-.24-2.47,.17-.83,.57-1.59,1.17-2.19,.6-.6,1.36-1.01,2.19-1.17,.83-.16,1.69-.08,2.47,.25,.78,.32,1.45,.87,1.92,1.58,.47,.7,.72,1.53,.72,2.38,0,1.13-.45,2.22-1.26,3.02-.8,.8-1.89,1.25-3.03,1.25Zm-9.7-4.28c1.99-4.16,5.67-6.72,9.7-6.72s7.71,2.57,9.7,6.72c-1.98,4.16-5.67,6.72-9.7,6.72s-7.71-2.56-9.7-6.71h0Zm8.03-2.51c.49-.33,1.08-.51,1.67-.51,.8,0,1.56,.32,2.12,.88s.88,1.33,.88,2.12c0,.59-.18,1.18-.51,1.67-.33,.49-.8,.88-1.35,1.11-.55,.23-1.15,.29-1.74,.17-.58-.12-1.12-.4-1.54-.82-.42-.42-.71-.96-.82-1.54-.12-.58-.06-1.19,.17-1.74,.23-.55,.61-1.02,1.11-1.35Z"/>
</svg>