<?xml version="1.0" encoding="UTF-8"?>
<svg id="Layer_1" data-name="Layer 1" xmlns="http://www.w3.org/2000/svg" viewBox="0 0 24 24">
  <defs>
    <style>
      .cls-1 {
        fill-rule: evenodd;
      }
    </style>
  </defs>
  <path class="cls-1" d="M1.06,12.26c2.16,4.77,6.37,7.74,10.98,7.74s8.82-2.97,10.98-7.74c.04-.08,.06-.17,.06-.26s-.02-.18-.06-.26c-2.16-4.77-6.37-7.74-10.98-7.74S3.23,6.97,1.06,11.74c-.04,.08-.06,.17-.06,.26s.02,.18,.06,.26Zm8.6,3.29c.7,.47,1.53,.72,2.38,.72,1.13,0,2.22-.45,3.03-1.25,.8-.8,1.25-1.89,1.26-3.02,0-.85-.25-1.68-.72-2.38-.47-.7-1.14-1.25-1.92-1.58-.78-.32-1.64-.41-2.47-.25-.83,.16-1.59,.57-2.19,1.17-.6,.6-1.01,1.36-1.17,2.19-.17,.83-.08,1.69,.24,2.47,.32,.78,.87,1.45,1.58,1.92Z"/>
</svg>