<?xml version="1.0" encoding="UTF-8"?>
<svg id="Layer_1" data-name="Layer 1" xmlns="http://www.w3.org/2000/svg" viewBox="0 0 44 44">
  <path d="M22,23.53c-1.02,0-2.02-.31-2.87-.89-.85-.58-1.51-1.4-1.9-2.36-.39-.96-.49-2.02-.3-3.04s.69-1.96,1.41-2.7c.72-.74,1.64-1.24,2.64-1.44,1-.2,2.04-.1,2.98,.3,.94,.4,1.75,1.07,2.32,1.94,.57,.87,.87,1.88,.87,2.93,0,1.4-.55,2.73-1.51,3.72-.97,.99-2.28,1.54-3.65,1.55Zm0-9.41c-.81,0-1.59,.24-2.26,.7-.67,.46-1.19,1.11-1.5,1.87-.31,.76-.39,1.6-.23,2.4,.16,.81,.55,1.55,1.12,2.13,.57,.58,1.3,.98,2.09,1.14,.79,.16,1.61,.08,2.35-.24,.74-.31,1.38-.85,1.83-1.53,.45-.68,.69-1.49,.69-2.31,0-.55-.1-1.09-.31-1.59-.2-.51-.5-.96-.88-1.35-.38-.39-.83-.69-1.32-.9-.49-.21-1.03-.32-1.56-.32h0Z"/>
  <path d="M28.12,31H15.88c-.33,0-.66-.09-.95-.26-.29-.17-.52-.42-.68-.72-.17-.3-.25-.63-.25-.98s.1-.68,.28-.97c1.31-2.22,4.34-3.65,7.73-3.65s6.41,1.43,7.72,3.65c.17,.29,.27,.62,.27,.96,0,.34-.08,.68-.24,.97-.16,.3-.4,.54-.69,.72-.29,.17-.61,.26-.95,.27Zm-6.12-5.46c-2.97,0-5.7,1.26-6.8,3.12-.07,.13-.11,.27-.11,.41s.04,.29,.11,.41c.07,.12,.17,.23,.29,.3,.12,.07,.26,.11,.4,.11h12.24c.14,0,.28-.03,.4-.11,.12-.07,.22-.18,.29-.3,.07-.13,.11-.27,.11-.41s-.04-.29-.11-.41c-1.13-1.87-3.86-3.12-6.82-3.12Z"/>
</svg>