<svg width="600" height="600" viewBox="0 0 600 600" fill="none" xmlns="http://www.w3.org/2000/svg">
<rect width="200" height="200" transform="matrix(-1 0 0 1 200 400)" fill="#00987A"/>
<rect width="200" height="200" transform="matrix(-1 0 0 1 600 200)" fill="#00987A"/>
<path d="M600 133.332L533.333 199.999H600V133.332Z" fill="#007C62"/>
<path d="M533.332 133.332L466.665 199.999H533.332V133.332Z" fill="#007C62"/>
<path d="M466.668 133.332L400.001 199.999H466.668V133.332Z" fill="#007C62"/>
<path d="M533.332 66.668L466.665 133.335H533.332V66.668Z" fill="#007C62"/>
<path d="M600 66.668L533.333 133.335H600V66.668Z" fill="#007C62"/>
<path d="M600 0L533.333 66.6667H600V0Z" fill="#007C62"/>
<path d="M200 333.332L133.333 399.999H200V333.332Z" fill="#007C62"/>
<path d="M133.332 333.332L66.6654 399.999H133.332V333.332Z" fill="#007C62"/>
<path d="M66.668 333.332L0.00130463 399.999H66.668V333.332Z" fill="#007C62"/>
<path d="M133.332 266.668L66.6654 333.335H133.332V266.668Z" fill="#007C62"/>
<path d="M200 266.668L133.333 333.335H200V266.668Z" fill="#007C62"/>
<path d="M200 200L133.333 266.667H200V200Z" fill="#007C62"/>
<path d="M400 600L200 400H400V600Z" fill="#007C62"/>
<path d="M200 200L400 400H200V200Z" fill="#004C3A"/>
<path d="M400 466.666L466.667 399.999H400V466.666Z" fill="#5FB470"/>
<path d="M466.668 466.666L533.335 399.999H466.668V466.666Z" fill="#5FB470"/>
<path d="M533.332 466.666L599.999 399.999H533.332V466.666Z" fill="#5FB470"/>
<path d="M466.668 533.332L533.335 466.665H466.668V533.332Z" fill="#5FB470"/>
<path d="M400 533.332L466.667 466.665H400V533.332Z" fill="#5FB470"/>
<path d="M400 600L466.667 533.333H400V600Z" fill="#5FB470"/>
<path d="M0 666.666L66.6667 599.999H0V666.666Z" stroke="#EEEEEE"/>
<path d="M66.668 666.666L133.335 599.999H66.668V666.666Z" stroke="#EEEEEE"/>
<path d="M133.332 666.666L199.999 599.999H133.332V666.666Z" stroke="#EEEEEE"/>
</svg>
