<svg width="400" height="400" viewBox="0 0 400 400" fill="none" xmlns="http://www.w3.org/2000/svg">
<path d="M399.996 366.666L366.663 400H399.996V366.666Z" fill="#5FB470"/>
<path d="M366.664 366.666L333.331 400H366.664V366.666Z" fill="#5FB470"/>
<path d="M333.328 366.666L299.995 400H333.328V366.666Z" fill="#5FB470"/>
<path d="M366.664 333.333L333.331 366.667H366.664V333.333Z" fill="#5FB470"/>
<path d="M399.996 333.333L366.663 366.667H399.996V333.333Z" fill="#5FB470"/>
<path d="M399.996 300L366.663 333.334H399.996V300Z" fill="#5FB470"/>
<path d="M299.996 333.334L266.663 300H299.996V333.334Z" fill="white"/>
<path d="M266.664 333.334L233.331 300H266.664V333.334Z" fill="white"/>
<path d="M233.332 333.334L199.999 300H233.332V333.334Z" fill="white"/>
<path d="M266.664 366.665L233.331 333.331H266.664V366.665Z" fill="white"/>
<path d="M299.996 366.665L266.663 333.331H299.996V366.665Z" fill="white"/>
<path d="M299.996 400L266.663 366.666H299.996V400Z" fill="white"/>
<path d="M100 333.334L133.333 300H100V333.334Z" fill="#F8AE01"/>
<path d="M133.332 333.334L166.665 300H133.332V333.334Z" fill="#F8AE01"/>
<path d="M166.664 333.334L199.997 300H166.664V333.334Z" fill="#F8AE01"/>
<path d="M133.332 366.665L166.665 333.331H133.332V366.665Z" fill="#F8AE01"/>
<path d="M100 366.665L133.333 333.331H100V366.665Z" fill="#F8AE01"/>
<path d="M100 400L133.333 366.666H100V400Z" fill="#F8AE01"/>
<path d="M300 200L200 300H300V200Z" fill="#004C3A"/>
<path d="M200 100L100 200H200V100Z" fill="#004C3A"/>
<path d="M400 233.334L366.667 200H400V233.334Z" fill="#F8AE01"/>
<path d="M366.668 233.334L333.335 200H366.668V233.334Z" fill="#F8AE01"/>
<path d="M333.332 233.334L299.999 200H333.332V233.334Z" fill="#F8AE01"/>
<path d="M366.668 266.667L333.335 233.333H366.668V266.667Z" fill="#F8AE01"/>
<path d="M400 266.667L366.667 233.333H400V266.667Z" fill="#F8AE01"/>
<path d="M400 300L366.667 266.666H400V300Z" fill="#F8AE01"/>
<path d="M300 66.666L333.333 99.9997H300V66.666Z" fill="#F8AE01"/>
<path d="M333.332 66.666L366.665 99.9997H333.332V66.666Z" fill="#F8AE01"/>
<path d="M366.668 66.666L400.001 99.9997H366.668V66.666Z" fill="#F8AE01"/>
<path d="M333.332 33.333L366.665 66.6667H333.332V33.333Z" fill="#F8AE01"/>
<path d="M300 33.333L333.333 66.6667H300V33.333Z" fill="#F8AE01"/>
<path d="M300 0L333.333 33.3337H300V0Z" fill="#F8AE01"/>
<path d="M100 233.334L66.6673 200H100V233.334Z" fill="white"/>
<path d="M66.668 233.334L33.3353 200H66.668V233.334Z" fill="white"/>
<path d="M33.332 233.334L-0.000652313 200H33.332V233.334Z" fill="white"/>
<path d="M66.668 266.667L33.3353 233.333H66.668V266.667Z" fill="white"/>
<path d="M100 266.667L66.6673 233.333H100V266.667Z" fill="white"/>
<path d="M100 300L66.6673 266.666H100V300Z" fill="white"/>
<path d="M200 133.334L233.333 100H200V133.334Z" fill="white"/>
<path d="M233.332 133.334L266.665 100H233.332V133.334Z" fill="white"/>
<path d="M266.668 133.334L300.001 100H266.668V133.334Z" fill="white"/>
<path d="M233.332 166.667L266.665 133.333H233.332V166.667Z" fill="white"/>
<path d="M200 166.667L233.333 133.333H200V166.667Z" fill="white"/>
<path d="M200 200L233.333 166.666H200V200Z" fill="white"/>
<path d="M300 100L400 200H300V100Z" fill="#5FB470"/>
<path d="M100 200L200 300H100V200Z" fill="#5FB470"/>
<path d="M0 333.334L33.3327 300H0V333.334Z" fill="#004C3A"/>
<path d="M33.332 333.334L66.6647 300H33.332V333.334Z" fill="#004C3A"/>
<path d="M66.668 333.334L100.001 300H66.668V333.334Z" fill="#004C3A"/>
<path d="M33.332 366.667L66.6647 333.333H33.332V366.667Z" fill="#004C3A"/>
<path d="M0 366.667L33.3327 333.333H0V366.667Z" fill="#004C3A"/>
<path d="M0 400L33.3327 366.666H0V400Z" fill="#004C3A"/>
</svg>
