<svg width="226" height="225" viewBox="0 0 226 225" fill="none" xmlns="http://www.w3.org/2000/svg">
<path d="M150.902 175.001L125.903 150H150.902V175.001Z" fill="#5FB470"/>
<path d="M125.898 175.001L100.9 150H125.898V175.001Z" fill="#5FB470"/>
<path d="M100.902 175.001L75.9034 150H100.902V175.001Z" fill="#5FB470"/>
<path d="M125.898 200.001L100.9 175H125.898V200.001Z" fill="#5FB470"/>
<path d="M150.902 200.001L125.903 175H150.902V200.001Z" fill="#5FB470"/>
<path d="M150.902 225L125.903 199.999H150.902V225Z" fill="#5FB470"/>
<path d="M151 25.001L126.002 0.000467539H151V25.001Z" fill="#5FB470"/>
<path d="M125.996 25.001L100.998 0.000467539H125.996V25.001Z" fill="#5FB470"/>
<path d="M101 25.001L76.0016 0.000467539H101V25.001Z" fill="#5FB470"/>
<path d="M125.996 50.001L100.998 25.0005H125.996V50.001Z" fill="#5FB470"/>
<path d="M151 50.001L126.002 25.0005H151V50.001Z" fill="#5FB470"/>
<path d="M151 75L126.002 49.9995H151V75Z" fill="#5FB470"/>
<path d="M151 49.999L176.001 74.9995H151V49.999Z" fill="#007C62"/>
<path d="M176 49.999L201.001 74.9995H176V49.999Z" fill="#007C62"/>
<path d="M201 49.999L226.001 74.9995H201V49.999Z" fill="#007C62"/>
<path d="M176 25.002L201.001 50.0025H176V25.002Z" fill="#007C62"/>
<path d="M151 25.002L176.001 50.0025H151V25.002Z" fill="#007C62"/>
<path d="M151 0L176.001 25.0005H151V0Z" fill="#007C62"/>
<path d="M0.851562 199.999L25.8524 225H0.851562V199.999Z" fill="#007C62"/>
<path d="M25.8516 199.999L50.8524 225H25.8516V199.999Z" fill="#007C62"/>
<path d="M50.8477 199.999L75.8485 225H50.8477V199.999Z" fill="#007C62"/>
<path d="M25.8516 175.002L50.8524 200.002H25.8516V175.002Z" fill="#007C62"/>
<path d="M0.851562 175.002L25.8524 200.002H0.851562V175.002Z" fill="#007C62"/>
<path d="M0.851562 150L25.8524 175.001H0.851562V150Z" fill="#007C62"/>
<path d="M151 75L76 150H151V75Z" fill="#004C3A"/>
<path d="M76.1914 100.001L51.193 75.0005H76.1914V100.001Z" fill="white"/>
<path d="M51.1875 100.001L26.1891 75.0005H51.1875V100.001Z" fill="white"/>
<path d="M26.1914 100.001L1.193 75.0005H26.1914V100.001Z" fill="white"/>
<path d="M51.1875 125.001L26.1891 100H51.1875V125.001Z" fill="white"/>
<path d="M76.1914 125.001L51.193 100H76.1914V125.001Z" fill="white"/>
<path d="M76.1914 150L51.193 124.999H76.1914V150Z" fill="white"/>
<path d="M226 150L151 225H226V150Z" fill="#007C62"/>
</svg>
