<svg width="225" height="225" viewBox="0 0 225 225" fill="none" xmlns="http://www.w3.org/2000/svg">
<path d="M150.066 175L125.065 150H150.066V175Z" fill="#5FB470"/>
<path d="M125.07 175L100.069 150H125.07V175Z" fill="#5FB470"/>
<path d="M100.066 175L75.065 150H100.066V175Z" fill="#5FB470"/>
<path d="M125.07 200L100.069 175H125.07V200Z" fill="#5FB470"/>
<path d="M150.066 200L125.065 175H150.066V200Z" fill="#5FB470"/>
<path d="M150.066 225L125.065 200H150.066V225Z" fill="#5FB470"/>
<path d="M150 25L124.999 -0.000228286H150V25Z" fill="#5FB470"/>
<path d="M125.004 25L100.003 -0.000228286H125.004V25Z" fill="#5FB470"/>
<path d="M100 25L74.9986 -0.000228286H100V25Z" fill="#5FB470"/>
<path d="M125.004 50L100.003 24.9998H125.004V50Z" fill="#5FB470"/>
<path d="M150 50L124.999 24.9998H150V50Z" fill="#5FB470"/>
<path d="M150 75L124.999 49.9998H150V75Z" fill="#5FB470"/>
<path d="M149.934 50L174.934 75.0002H149.934V50Z" fill="white"/>
<path d="M174.93 50L199.93 75.0002H174.93V50Z" fill="white"/>
<path d="M199.934 50L224.934 75.0002H199.934V50Z" fill="white"/>
<path d="M174.93 25.001L199.93 50.0012H174.93V25.001Z" fill="white"/>
<path d="M149.934 25.001L174.934 50.0012H149.934V25.001Z" fill="white"/>
<path d="M149.934 0L174.934 25.0002H149.934V0Z" fill="white"/>
<path d="M0.0664062 175L25.0668 150H0.0664062V175Z" fill="white"/>
<path d="M25.0625 175L50.0629 150H25.0625V175Z" fill="white"/>
<path d="M50.0664 175L75.0668 150H50.0664V175Z" fill="white"/>
<path d="M25.0625 199.999L50.0629 174.999H25.0625V199.999Z" fill="white"/>
<path d="M0.0664062 199.999L25.0668 174.999H0.0664062V199.999Z" fill="white"/>
<path d="M0.0664062 225L25.0668 200H0.0664062V225Z" fill="white"/>
<path d="M150.062 75L75.0625 150H150.062V75Z" fill="#004C3A"/>
<path d="M225.062 100L200.061 74.9998H225.062V100Z" fill="#F8AE01"/>
<path d="M200.066 100L175.065 74.9998H200.066V100Z" fill="#F8AE01"/>
<path d="M175.062 100L150.061 74.9998H175.062V100Z" fill="#F8AE01"/>
<path d="M200.066 125L175.065 99.9998H200.066V125Z" fill="#F8AE01"/>
<path d="M225.062 125L200.061 99.9998H225.062V125Z" fill="#F8AE01"/>
<path d="M225.062 150L200.061 125H225.062V150Z" fill="#F8AE01"/>
<path d="M75 100L49.9986 74.9998H75V100Z" fill="#F8AE01"/>
<path d="M50.0039 100L25.0025 74.9998H50.0039V100Z" fill="#F8AE01"/>
<path d="M25 100L-0.00137627 74.9998H25V100Z" fill="#F8AE01"/>
<path d="M50.0039 125L25.0025 99.9998H50.0039V125Z" fill="#F8AE01"/>
<path d="M75 125L49.9986 99.9998H75V125Z" fill="#F8AE01"/>
<path d="M75 150L49.9986 125H75V150Z" fill="#F8AE01"/>
<path d="M225.066 150L150.066 225H225.066V150Z" fill="#5FB470"/>
</svg>
