<svg width="570" height="342" viewBox="0 0 570 342" fill="none" xmlns="http://www.w3.org/2000/svg">
<path d="M342 75.8838L304.058 113.826H342V75.8838Z" fill="#007C62"/>
<path d="M304.059 75.8838L266.116 113.826H304.059V75.8838Z" fill="#007C62"/>
<path d="M266.117 75.8838L228.175 113.826H266.117V75.8838Z" fill="#007C62"/>
<path d="M304.059 37.9443L266.116 75.8866H304.059V37.9443Z" fill="#007C62"/>
<path d="M342 37.9443L304.058 75.8866H342V37.9443Z" fill="#007C62"/>
<path d="M342 0.000976562L304.058 37.9432H342V0.000976562Z" fill="#007C62"/>
<path d="M228 303.883L190.058 341.825H228V303.883Z" fill="#007C62"/>
<path d="M190.059 303.883L152.116 341.825H190.059V303.883Z" fill="#007C62"/>
<path d="M152.117 303.883L114.175 341.825H152.117V303.883Z" fill="#007C62"/>
<path d="M190.059 265.943L152.116 303.886H190.059V265.943Z" fill="#007C62"/>
<path d="M228 265.943L190.058 303.886H228V265.943Z" fill="#007C62"/>
<path d="M228 228L190.058 265.942H228V228Z" fill="#007C62"/>
<path d="M456 189.883L418.058 227.825H456V189.883Z" fill="#007C62"/>
<path d="M418.059 189.883L380.116 227.825H418.059V189.883Z" fill="#007C62"/>
<path d="M380.117 189.883L342.175 227.825H380.117V189.883Z" fill="#007C62"/>
<path d="M418.059 151.943L380.116 189.886H418.059V151.943Z" fill="#007C62"/>
<path d="M456 151.943L418.058 189.886H456V151.943Z" fill="#007C62"/>
<path d="M456 114L418.058 151.942H456V114Z" fill="#007C62"/>
<path d="M342 229L457.26 342H342V229Z" fill="#004C3A"/>
<path d="M114 1L229.26 114H114V1Z" fill="#004C3A"/>
<path d="M0 228.781L115.26 341.781H0V228.781Z" fill="#004C3A"/>
<path d="M0.171875 151.768L38.1141 113.825H0.171875V151.768Z" fill="#F8AE01"/>
<path d="M38.1172 151.768L76.0594 113.825H38.1172V151.768Z" fill="#F8AE01"/>
<path d="M76.0586 151.768L114.001 113.825H76.0586V151.768Z" fill="#F8AE01"/>
<path d="M38.1172 189.709L76.0594 151.767H38.1172V189.709Z" fill="#F8AE01"/>
<path d="M0.171875 189.709L38.1141 151.767H0.171875V189.709Z" fill="#F8AE01"/>
<path d="M0.171875 227.652L38.1141 189.71H0.171875V227.652Z" fill="#F8AE01"/>
<path d="M228.172 151.942L266.114 114H228.172V151.942Z" fill="#F8AE01"/>
<path d="M266.113 151.942L304.056 114H266.113V151.942Z" fill="#F8AE01"/>
<path d="M304.059 151.942L342.001 114H304.059V151.942Z" fill="#F8AE01"/>
<path d="M266.113 189.884L304.056 151.942H266.113V189.884Z" fill="#F8AE01"/>
<path d="M228.172 189.884L266.114 151.942H228.172V189.884Z" fill="#F8AE01"/>
<path d="M228.172 227.825L266.114 189.883H228.172V227.825Z" fill="#F8AE01"/>
<path d="M456.172 37.9434L494.114 0.0011096H456.172V37.9434Z" fill="#F8AE01"/>
<path d="M494.113 37.9434L532.056 0.0011096H494.113V37.9434Z" fill="#F8AE01"/>
<path d="M532.059 37.9434L570.001 0.0011096H532.059V37.9434Z" fill="#F8AE01"/>
<path d="M494.113 75.8848L532.056 37.9425H494.113V75.8848Z" fill="#F8AE01"/>
<path d="M456.172 75.8848L494.114 37.9425H456.172V75.8848Z" fill="#F8AE01"/>
<path d="M456.172 113.826L494.114 75.8839H456.172V113.826Z" fill="#F8AE01"/>
<path d="M0.171875 37.9424L38.1141 0.000133038H0.171875V37.9424Z" fill="#5FB470"/>
<path d="M38.1172 37.9424L76.0594 0.000133038H38.1172V37.9424Z" fill="#5FB470"/>
<path d="M76.0586 37.9424L114.001 0.000133038H76.0586V37.9424Z" fill="#5FB470"/>
<path d="M38.1172 75.8838L76.0594 37.9415H38.1172V75.8838Z" fill="#5FB470"/>
<path d="M0.171875 75.8838L38.1141 37.9415H0.171875V75.8838Z" fill="#5FB470"/>
<path d="M0.171875 113.827L38.1141 75.8849H0.171875V113.827Z" fill="#5FB470"/>
<path d="M228.172 265.941L266.114 227.999H228.172V265.941Z" fill="#5FB470"/>
<path d="M266.113 265.941L304.056 227.999H266.113V265.941Z" fill="#5FB470"/>
<path d="M304.059 265.941L342.001 227.999H304.059V265.941Z" fill="#5FB470"/>
<path d="M266.113 303.883L304.056 265.941H266.113V303.883Z" fill="#5FB470"/>
<path d="M228.172 303.883L266.114 265.941H228.172V303.883Z" fill="#5FB470"/>
<path d="M228.172 341.824L266.114 303.882H228.172V341.824Z" fill="#5FB470"/>
<path d="M114 151.941L151.942 113.999H114V151.941Z" fill="#5FB470"/>
<path d="M151.945 151.941L189.888 113.999H151.945V151.941Z" fill="#5FB470"/>
<path d="M189.887 151.941L227.829 113.999H189.887V151.941Z" fill="#5FB470"/>
<path d="M151.945 189.883L189.888 151.941H151.945V189.883Z" fill="#5FB470"/>
<path d="M114 189.883L151.942 151.941H114V189.883Z" fill="#5FB470"/>
<path d="M114 227.826L151.942 189.884H114V227.826Z" fill="#5FB470"/>
</svg>
