<svg width="570" height="342" viewBox="0 0 570 342" fill="none" xmlns="http://www.w3.org/2000/svg">
<path d="M342 75.8838L304.057 113.826H342V75.8838Z" fill="#007C62"/>
<path d="M304.058 75.8838L266.116 113.826H304.058V75.8838Z" fill="#007C62"/>
<path d="M266.115 75.8838L228.173 113.826H266.115V75.8838Z" fill="#007C62"/>
<path d="M304.058 37.9438L266.116 75.8861H304.058V37.9438Z" fill="#007C62"/>
<path d="M342 37.9438L304.057 75.8861H342V37.9438Z" fill="#007C62"/>
<path d="M342 0.000488281L304.057 37.9427H342V0.000488281Z" fill="#007C62"/>
<path d="M228.002 303.883L190.06 341.825H228.002V303.883Z" fill="#007C62"/>
<path d="M190.061 303.883L152.118 341.825H190.061V303.883Z" fill="#007C62"/>
<path d="M152.118 303.883L114.176 341.825H152.118V303.883Z" fill="#007C62"/>
<path d="M190.061 265.943L152.118 303.886H190.061V265.943Z" fill="#007C62"/>
<path d="M228.002 265.943L190.06 303.886H228.002V265.943Z" fill="#007C62"/>
<path d="M228.002 228L190.06 265.942H228.002V228Z" fill="#007C62"/>
<path d="M456 189.883L418.058 227.825H456V189.883Z" fill="#007C62"/>
<path d="M418.059 189.883L380.116 227.825H418.059V189.883Z" fill="#007C62"/>
<path d="M380.116 189.883L342.173 227.825H380.116V189.883Z" fill="#007C62"/>
<path d="M418.059 151.943L380.116 189.885H418.059V151.943Z" fill="#007C62"/>
<path d="M456 151.943L418.058 189.885H456V151.943Z" fill="#007C62"/>
<path d="M456 114L418.058 151.942H456V114Z" fill="#007C62"/>
<path d="M342 229L457.26 342H342V229Z" fill="#004C3A"/>
<path d="M114 0.999512L229.26 114H114V0.999512Z" fill="#004C3A"/>
<path d="M0 228.781L115.26 341.781H0V228.781Z" fill="#004C3A"/>
<path d="M0.172852 151.768L38.1151 113.825H0.172852V151.768Z" fill="white"/>
<path d="M38.1152 151.768L76.0575 113.825H38.1152V151.768Z" fill="white"/>
<path d="M76.0576 151.768L114 113.825H76.0576V151.768Z" fill="white"/>
<path d="M38.1152 189.709L76.0575 151.767H38.1152V189.709Z" fill="white"/>
<path d="M0.172852 189.709L38.1151 151.767H0.172852V189.709Z" fill="white"/>
<path d="M0.172852 227.652L38.1151 189.71H0.172852V227.652Z" fill="white"/>
<path d="M228.173 151.942L266.115 114H228.173V151.942Z" fill="white"/>
<path d="M266.115 151.942L304.057 114H266.115V151.942Z" fill="white"/>
<path d="M304.058 151.942L342 114H304.058V151.942Z" fill="white"/>
<path d="M266.115 189.883L304.057 151.941H266.115V189.883Z" fill="white"/>
<path d="M228.173 189.883L266.115 151.941H228.173V189.883Z" fill="white"/>
<path d="M228.173 227.826L266.115 189.883H228.173V227.826Z" fill="white"/>
<path d="M456.173 37.9429L494.115 0.000621796H456.173V37.9429Z" fill="white"/>
<path d="M494.115 37.9429L532.057 0.000621796H494.115V37.9429Z" fill="white"/>
<path d="M532.058 37.9429L570 0.000621796H532.058V37.9429Z" fill="white"/>
<path d="M494.115 75.8838L532.057 37.9415H494.115V75.8838Z" fill="white"/>
<path d="M456.173 75.8838L494.115 37.9415H456.173V75.8838Z" fill="white"/>
<path d="M456.173 113.826L494.115 75.8839H456.173V113.826Z" fill="white"/>
<path d="M0.172852 37.9424L38.1151 0.000133514H0.172852V37.9424Z" fill="#5FB470"/>
<path d="M38.1152 37.9424L76.0575 0.000133514H38.1152V37.9424Z" fill="#5FB470"/>
<path d="M76.0576 37.9424L114 0.000133514H76.0576V37.9424Z" fill="#5FB470"/>
<path d="M38.1152 75.8838L76.0575 37.9415H38.1152V75.8838Z" fill="#5FB470"/>
<path d="M0.172852 75.8838L38.1151 37.9415H0.172852V75.8838Z" fill="#5FB470"/>
<path d="M0.172852 113.827L38.1151 75.8849H0.172852V113.827Z" fill="#5FB470"/>
<path d="M228.173 265.941L266.115 227.999H228.173V265.941Z" fill="#5FB470"/>
<path d="M266.115 265.941L304.057 227.999H266.115V265.941Z" fill="#5FB470"/>
<path d="M304.058 265.941L342 227.999H304.058V265.941Z" fill="#5FB470"/>
<path d="M266.115 303.882L304.057 265.94H266.115V303.882Z" fill="#5FB470"/>
<path d="M228.173 303.882L266.115 265.94H228.173V303.882Z" fill="#5FB470"/>
<path d="M228.173 341.825L266.115 303.882H228.173V341.825Z" fill="#5FB470"/>
<path d="M114 151.941L151.942 113.999H114V151.941Z" fill="#5FB470"/>
<path d="M151.942 151.941L189.885 113.999H151.942V151.941Z" fill="#5FB470"/>
<path d="M189.885 151.941L227.827 113.999H189.885V151.941Z" fill="#5FB470"/>
<path d="M151.942 189.883L189.885 151.941H151.942V189.883Z" fill="#5FB470"/>
<path d="M114 189.883L151.942 151.941H114V189.883Z" fill="#5FB470"/>
<path d="M114 227.826L151.942 189.884H114V227.826Z" fill="#5FB470"/>
</svg>
