<svg width="300" height="300" viewBox="0 0 300 300" fill="none" xmlns="http://www.w3.org/2000/svg">
<path d="M200 233.334L166.668 200H200V233.334Z" fill="#5FB470"/>
<path d="M166.667 233.334L133.334 200H166.667V233.334Z" fill="#5FB470"/>
<path d="M133.333 233.334L99.9998 200H133.333V233.334Z" fill="#5FB470"/>
<path d="M166.667 266.667L133.334 233.333H166.667V266.667Z" fill="#5FB470"/>
<path d="M200 266.667L166.668 233.333H200V266.667Z" fill="#5FB470"/>
<path d="M200 300L166.668 266.666H200V300Z" fill="#5FB470"/>
<path d="M200 33.3335L166.668 -0.000209808H200V33.3335Z" fill="#5FB470"/>
<path d="M166.667 33.3335L133.334 -0.000209808H166.667V33.3335Z" fill="#5FB470"/>
<path d="M133.333 33.3335L99.9998 -0.000209808H133.333V33.3335Z" fill="#5FB470"/>
<path d="M166.667 66.6665L133.334 33.3328H166.667V66.6665Z" fill="#5FB470"/>
<path d="M200 66.6665L166.668 33.3328H200V66.6665Z" fill="#5FB470"/>
<path d="M200 99.9995L166.668 66.6658H200V99.9995Z" fill="#5FB470"/>
<path d="M200 66.666L233.333 99.9997H200V66.666Z" fill="#007C62"/>
<path d="M233.332 66.666L266.665 99.9997H233.332V66.666Z" fill="#007C62"/>
<path d="M266.666 66.666L299.999 99.9997H266.666V66.666Z" fill="#007C62"/>
<path d="M233.332 33.335L266.665 66.6687H233.332V33.335Z" fill="#007C62"/>
<path d="M200 33.335L233.333 66.6687H200V33.335Z" fill="#007C62"/>
<path d="M200 0L233.333 33.3337H200V0Z" fill="#007C62"/>
<path d="M0 266.666L33.3333 300H0V266.666Z" fill="#007C62"/>
<path d="M33.332 266.666L66.6653 300H33.332V266.666Z" fill="#007C62"/>
<path d="M66.666 266.666L99.9993 300H66.666V266.666Z" fill="#007C62"/>
<path d="M33.332 233.335L66.6653 266.669H33.332V233.335Z" fill="#007C62"/>
<path d="M0 233.335L33.3333 266.669H0V233.335Z" fill="#007C62"/>
<path d="M0 200L33.3333 233.334H0V200Z" fill="#007C62"/>
<path d="M200 102L100 200.039H200V102Z" fill="#004C3A"/>
<path d="M300 133.333L266.668 99.9998H300V133.333Z" fill="white"/>
<path d="M266.667 133.333L233.334 99.9998H266.667V133.333Z" fill="white"/>
<path d="M233.333 133.333L200 99.9998H233.333V133.333Z" fill="white"/>
<path d="M266.667 166.667L233.334 133.333H266.667V166.667Z" fill="white"/>
<path d="M300 166.667L266.668 133.333H300V166.667Z" fill="white"/>
<path d="M300 200L266.668 166.666H300V200Z" fill="white"/>
<path d="M101 133.333L67.6678 99.9998H101V133.333Z" fill="white"/>
<path d="M67.6665 133.333L34.3338 99.9998H67.6665V133.333Z" fill="white"/>
<path d="M34.3325 133.333L0.999836 99.9998H34.3325V133.333Z" fill="white"/>
<path d="M67.6665 166.667L34.3338 133.333H67.6665V166.667Z" fill="white"/>
<path d="M101 166.667L67.6678 133.333H101V166.667Z" fill="white"/>
<path d="M101 200L67.6678 166.666H101V200Z" fill="white"/>
<path d="M300 200L200 300H300V200Z" fill="#007C62"/>
</svg>
