<svg width="225" height="225" viewBox="0 0 225 225" fill="none" xmlns="http://www.w3.org/2000/svg">
<path d="M150 175L125.002 150H150V175Z" fill="white"/>
<path d="M125.004 175L100.005 150H125.004V175Z" fill="white"/>
<path d="M100 175L75.0015 150H100V175Z" fill="white"/>
<path d="M125.004 200L100.005 175H125.004V200Z" fill="white"/>
<path d="M150 200L125.002 175H150V200Z" fill="white"/>
<path d="M150 225L125.002 200H150V225Z" fill="white"/>
<path d="M149.625 25L124.626 -0.000271201H149.625V25Z" fill="white"/>
<path d="M124.625 25L99.6264 -0.000271201H124.625V25Z" fill="white"/>
<path d="M99.625 25L74.6264 -0.000271201H99.625V25Z" fill="white"/>
<path d="M124.625 50L99.6264 24.9997H124.625V50Z" fill="white"/>
<path d="M149.625 50L124.626 24.9997H149.625V50Z" fill="white"/>
<path d="M149.625 75L124.626 49.9997H149.625V75Z" fill="white"/>
<path d="M149.812 50L174.813 75.0003H149.812V50Z" fill="#007C62"/>
<path d="M174.809 50L199.809 75.0003H174.809V50Z" fill="#007C62"/>
<path d="M199.812 50L224.813 75.0003H199.812V50Z" fill="#007C62"/>
<path d="M174.809 25.001L199.809 50.0012H174.809V25.001Z" fill="#007C62"/>
<path d="M149.812 25.001L174.813 50.0012H149.812V25.001Z" fill="#007C62"/>
<path d="M149.812 0L174.813 25.0003H149.812V0Z" fill="#007C62"/>
<path d="M0 200L25 225H0V200Z" fill="#007C62"/>
<path d="M24.9961 200L49.9961 225H24.9961V200Z" fill="#007C62"/>
<path d="M50 200L75 225H50V200Z" fill="#007C62"/>
<path d="M24.9961 175.001L49.9961 200.001H24.9961V175.001Z" fill="#007C62"/>
<path d="M0 175.001L25 200.001H0V175.001Z" fill="#007C62"/>
<path d="M0 150L25 175H0V150Z" fill="#007C62"/>
<path d="M150 75L75 150H150V75Z" fill="#004C3A"/>
<path d="M225 100L200.002 74.9996H225V100Z" fill="#F8AE01"/>
<path d="M200 100L175.002 74.9996H200V100Z" fill="#F8AE01"/>
<path d="M175 100L150.002 74.9996H175V100Z" fill="#F8AE01"/>
<path d="M200 125L175.002 99.9996H200V125Z" fill="#F8AE01"/>
<path d="M225 125L200.002 99.9996H225V125Z" fill="#F8AE01"/>
<path d="M225 150L200.002 125H225V150Z" fill="#F8AE01"/>
<path d="M75.1875 100L50.189 74.9996H75.1875V100Z" fill="#F8AE01"/>
<path d="M50.1875 100L25.189 74.9996H50.1875V100Z" fill="#F8AE01"/>
<path d="M25.1875 100L0.189038 74.9996H25.1875V100Z" fill="#F8AE01"/>
<path d="M50.1875 125L25.189 99.9996H50.1875V125Z" fill="#F8AE01"/>
<path d="M75.1875 125L50.189 99.9996H75.1875V125Z" fill="#F8AE01"/>
<path d="M75.1875 150L50.189 125H75.1875V150Z" fill="#F8AE01"/>
<path d="M225 150L150 225H225V150Z" fill="#007C62"/>
</svg>
