<?xml version="1.0" encoding="UTF-8"?>
<svg id="Layer_1" data-name="Layer 1" xmlns="http://www.w3.org/2000/svg" viewBox="0 0 64 64">
  <defs>
    <style>
      .cls-1 {
        fill: #f8ae01;
      }

      .cls-2 {
        fill: #004c3a;
      }

      .cls-3 {
        fill: #00987a;
      }

      .cls-4 {
        fill: #007c62;
      }

      .cls-5 {
        fill: #5fb470;
      }
    </style>
  </defs>
  <rect class="cls-3" x="5.33" y="16" width="10.67" height="10.67"/>
  <path class="cls-4" d="M26.66,23.11l3.56,3.56h-3.56v-3.56Z"/>
  <path class="cls-4" d="M30.22,23.11l3.56,3.56h-3.56v-3.56Z"/>
  <path class="cls-4" d="M33.77,23.11l3.56,3.56h-3.56v-3.56Z"/>
  <path class="cls-4" d="M30.22,19.56l3.56,3.56h-3.56v-3.56Z"/>
  <path class="cls-4" d="M26.66,19.56l3.56,3.56h-3.56v-3.56Z"/>
  <path class="cls-4" d="M26.66,16l3.56,3.56h-3.56v-3.56Z"/>
  <path class="cls-4" d="M48,33.78l3.56,3.56h-3.56v-3.56Z"/>
  <path class="cls-4" d="M51.55,33.78l3.56,3.56h-3.56v-3.56Z"/>
  <path class="cls-4" d="M55.11,33.78l3.56,3.56h-3.56v-3.56Z"/>
  <path class="cls-4" d="M51.55,30.22l3.56,3.56h-3.56v-3.56Z"/>
  <path class="cls-4" d="M48,30.22l3.56,3.56h-3.56v-3.56Z"/>
  <path class="cls-4" d="M48,26.67l3.56,3.56h-3.56v-3.56Z"/>
  <path class="cls-4" d="M5.33,12.44l3.56,3.56h-3.56v-3.56Z"/>
  <path class="cls-4" d="M8.89,12.44l3.56,3.56h-3.56v-3.56Z"/>
  <path class="cls-4" d="M12.44,12.44l3.56,3.56h-3.56v-3.56Z"/>
  <path class="cls-4" d="M8.89,8.89l3.56,3.56h-3.56v-3.56Z"/>
  <path class="cls-4" d="M5.33,8.89l3.56,3.56h-3.56v-3.56Z"/>
  <path class="cls-4" d="M5.33,5.33l3.56,3.56h-3.56v-3.56Z"/>
  <path class="cls-4" d="M16,37.33l10.67-10.67h-10.67v10.67Z"/>
  <path class="cls-4" d="M37.33,48l10.67-10.67h-10.67v10.67Z"/>
  <path class="cls-2" d="M26.66,16l-10.67,10.67h10.67v-10.67Z"/>
  <path class="cls-2" d="M48,26.67l-10.67,10.67h10.67v-10.67Z"/>
  <path class="cls-5" d="M16,30.22l-3.56-3.56h3.56v3.56Z"/>
  <path class="cls-5" d="M12.44,30.22l-3.56-3.56h3.56v3.56Z"/>
  <path class="cls-5" d="M8.89,30.22l-3.56-3.56h3.56v3.56Z"/>
  <path class="cls-5" d="M12.44,33.78l-3.56-3.56h3.56v3.56Z"/>
  <path class="cls-5" d="M16,33.78l-3.56-3.56h3.56v3.56Z"/>
  <path class="cls-5" d="M16,37.33l-3.56-3.56h3.56v3.56Z"/>
  <path class="cls-1" d="M58.67,51.56l-3.56-3.56h3.56v3.56Z"/>
  <path class="cls-1" d="M55.11,51.56l-3.56-3.56h3.56v3.56Z"/>
  <path class="cls-1" d="M51.55,51.56l-3.56-3.56h3.56v3.56Z"/>
  <path class="cls-1" d="M55.11,55.11l-3.56-3.56h3.56v3.56Z"/>
  <path class="cls-1" d="M58.67,55.11l-3.56-3.56h3.56v3.56Z"/>
  <path class="cls-1" d="M58.67,58.67l-3.56-3.56h3.56v3.56Z"/>
  <path class="cls-5" d="M37.33,40.89l-3.56-3.56h3.56v3.56Z"/>
  <path class="cls-5" d="M33.77,40.89l-3.56-3.56h3.56v3.56Z"/>
  <path class="cls-5" d="M30.22,40.89l-3.56-3.56h3.56v3.56Z"/>
  <path class="cls-5" d="M33.77,44.44l-3.56-3.56h3.56v3.56Z"/>
  <path class="cls-5" d="M37.33,44.44l-3.56-3.56h3.56v3.56Z"/>
  <path class="cls-5" d="M37.33,48l-3.56-3.56h3.56v3.56Z"/>
  <rect class="cls-3" x="26.66" y="26.67" width="10.67" height="10.67"/>
  <rect class="cls-3" x="48" y="37.33" width="10.67" height="10.67"/>
  <circle class="cls-1" cx="10.66" cy="10.67" r="3.91"/>
</svg>