<svg width="320" height="192" viewBox="0 0 320 192" fill="none" xmlns="http://www.w3.org/2000/svg">
<path d="M118 64L54 -5.24521e-06M118 64V-5.24521e-06H54M118 64H54M118 64V128M54 -5.24521e-06H-10M54 -5.24521e-06L54 64M54 64L-10 -5.24521e-06M54 64H-10M54 64V128M54 64L118 128M-10 -5.24521e-06H-74L-10 64M-10 -5.24521e-06V64M-10 64L54 128M54 128L118 192V128M54 128H118" stroke="#EEEEEE"/>
<circle cx="214" cy="96" r="96" stroke="#EEEEEE"/>
<path d="M310 192L502 -2.86102e-06H310V192Z" stroke="#EEEEEE"/>
</svg>
