<?xml version="1.0" encoding="UTF-8"?>
<svg id="Layer_1" data-name="Layer 1" xmlns="http://www.w3.org/2000/svg" viewBox="0 0 80 60">
  <defs>
    <style>
      .cls-1 {
        fill: #c4c4c4;
      }
    </style>
  </defs>
  <path class="cls-1" d="M0,0V60H80V0H0ZM5.22,5.29H74.78V44.34l-13.72-15.25c-.53-.59-1.34-.91-2.12-.85-.65,.05-1.27,.35-1.71,.83l-11.79,12.71L28.04,22.06c-.53-.6-1.33-.93-2.12-.88-.65,.04-1.29,.34-1.74,.83L5.22,42.69V5.29Zm40.87,5.29c-4.29,0-7.83,3.59-7.83,7.94s3.54,7.94,7.83,7.94,7.83-3.59,7.83-7.94-3.53-7.94-7.83-7.94Zm0,5.29c1.47,0,2.61,1.15,2.61,2.65s-1.14,2.65-2.61,2.65-2.61-1.15-2.61-2.65,1.14-2.65,2.61-2.65Zm-20.05,11.86l23.78,26.97H5.22v-4.27L26.03,27.74Zm33.07,7.03l15.68,17.43v2.51h-17.96l-7.91-8.96,10.19-10.97Z"/>
</svg>