<svg width="224" height="106" viewBox="0 0 224 106" fill="none" xmlns="http://www.w3.org/2000/svg">
<path d="M108 35.3333L72.6667 2.14577e-06M108 35.3333V2.14577e-06H72.6667M108 35.3333H72.6667M108 35.3333V70.6667M72.6667 2.14577e-06H37.3333M72.6667 2.14577e-06L72.6667 35.3333M72.6667 35.3333L37.3333 2.14577e-06M72.6667 35.3333H37.3333M72.6667 35.3333V70.6667M72.6667 35.3333L108 70.6667M37.3333 2.14577e-06H2L37.3333 35.3333M37.3333 2.14577e-06V35.3333M37.3333 35.3333L72.6667 70.6667M72.6667 70.6667L108 106V70.6667M72.6667 70.6667H108" stroke="#EEEEEE"/>
<circle cx="161" cy="53" r="53" stroke="#EEEEEE"/>
<path d="M214 106L320 9.53674e-07H214V106Z" stroke="#EEEEEE"/>
</svg>
