<?xml version="1.0" encoding="UTF-8"?>
<svg id="Layer_1" data-name="Layer 1" xmlns="http://www.w3.org/2000/svg" viewBox="0 0 50.06 40">
  <defs>
    <style>
      .cls-1 {
        fill: #c4c4c4;
      }
    </style>
  </defs>
  <path class="cls-1" d="M50.06,5.53c0-1.47-.58-2.87-1.62-3.91C47.4,.58,46,0,44.53,0H5.55c-1.47,0-2.88,.58-3.92,1.61C.59,2.65,0,4.06,0,5.53v28.94c0,1.47,.58,2.87,1.62,3.91,1.04,1.04,2.44,1.62,3.91,1.62H44.51c1.47,0,2.87-.58,3.91-1.62,1.04-1.04,1.62-2.44,1.62-3.91l.02-28.94Zm-1.75,28.94c0,1-.4,1.96-1.11,2.67-.71,.71-1.67,1.11-2.67,1.11H5.55c-1,0-1.96-.4-2.67-1.11-.71-.71-1.11-1.67-1.11-2.67V5.53c0-1,.4-1.96,1.11-2.67,.71-.71,1.67-1.11,2.67-1.11H44.51c1,0,1.96,.4,2.67,1.11,.71,.71,1.11,1.67,1.11,2.67l.02,28.94Z"/>
  <path class="cls-1" d="M30.17,16.95c1.45,0,2.85-.58,3.88-1.61,1.03-1.03,1.61-2.42,1.61-3.88s-.58-2.85-1.61-3.88c-1.03-1.03-2.42-1.61-3.88-1.61s-2.85,.58-3.88,1.61c-1.03,1.03-1.61,2.42-1.61,3.88,0,1.45,.58,2.85,1.61,3.88,1.03,1.03,2.42,1.61,3.88,1.61Zm0-9.22c.99,0,1.94,.39,2.64,1.09,.7,.7,1.09,1.65,1.09,2.64s-.39,1.94-1.09,2.64c-.7,.7-1.65,1.09-2.64,1.09s-1.94-.39-2.64-1.09c-.7-.7-1.09-1.65-1.09-2.64,0-.99,.4-1.94,1.1-2.64,.7-.7,1.65-1.09,2.64-1.09h0Z"/>
  <path class="cls-1" d="M35.59,22.07c-.17-.17-.41-.27-.66-.27-.24,0-.47,.11-.63,.3l-4.82,5.51-9.2-12.12c-.16-.21-.41-.34-.68-.34-.27,0-.52,.11-.69,.31L5.16,32.02c-.22,.26-.26,.62-.12,.93,.14,.31,.45,.5,.79,.5H44.51c.35,0,.67-.21,.8-.53,.14-.32,.07-.69-.17-.95l-9.55-9.91Zm-9.02,9.64H7.69l11.86-14.3,10.86,14.3h-3.84Zm6.02,0l-2.03-2.68,4.43-5.06,7.47,7.74h-9.87Z"/>
</svg>