<?xml version="1.0" encoding="UTF-8"?>
<svg id="Layer_1" data-name="Layer 1" xmlns="http://www.w3.org/2000/svg" viewBox="0 0 32 32">
  <defs>
    <style>
      .cls-1 {
        fill: #f6f6f6;
      }

      .cls-2 {
        fill: #07f;
      }
    </style>
  </defs>
  <path class="cls-2" d="M4,15.52c0-5.43,0-8.15,1.69-9.83,1.69-1.69,4.4-1.69,9.83-1.69h.96c5.43,0,8.15,0,9.83,1.69,1.69,1.69,1.69,4.4,1.69,9.83v.96c0,5.43,0,8.15-1.69,9.83-1.69,1.69-4.4,1.69-9.83,1.69h-.96c-5.43,0-8.15,0-9.83-1.69-1.69-1.69-1.69-4.4-1.69-9.83v-.96Z"/>
  <path class="cls-1" d="M16.81,21.35c-5.4,0-8.68-3.76-8.81-10h2.74c.09,4.59,2.17,6.53,3.76,6.93v-6.93h2.62v3.96c1.54-.17,3.15-1.97,3.69-3.96h2.58c-.41,2.44-2.17,4.24-3.41,4.99,1.24,.6,3.24,2.17,4.01,5.01h-2.84c-.6-1.9-2.07-3.37-4.04-3.57v3.57h-.31Z"/>
</svg>