<?xml version="1.0" encoding="UTF-8"?>
<svg id="Layer_1" data-name="Layer 1" xmlns="http://www.w3.org/2000/svg" viewBox="0 0 32 32">
  <defs>
    <style>
      .cls-1 {
        fill: #37c745;
      }
    </style>
  </defs>
  <path class="cls-1" d="M16,3c-6.63,0-12,5.37-12,12,0,2.25,.63,4.35,1.71,6.15l-1.6,5.85,5.97-1.57c1.75,.99,3.76,1.57,5.92,1.57,6.63,0,12-5.37,12-12S22.63,3,16,3Zm-4.11,6.4c.19,0,.4,0,.57,0,.21,0,.45,.02,.67,.51,.26,.59,.84,2.06,.92,2.21,.07,.15,.13,.32,.02,.52-.1,.2-.15,.32-.29,.5-.15,.17-.31,.39-.45,.52-.15,.15-.3,.31-.13,.61s.77,1.27,1.65,2.06c1.14,1.01,2.09,1.33,2.39,1.47,.3,.15,.47,.13,.64-.07,.18-.19,.74-.86,.94-1.16,.19-.3,.39-.25,.66-.15,.27,.1,1.74,.82,2.03,.97s.49,.22,.57,.34c.08,.12,.08,.72-.17,1.41-.25,.69-1.46,1.36-2,1.41-.55,.05-1.06,.25-3.57-.74-3.02-1.19-4.93-4.29-5.08-4.49-.15-.19-1.21-1.61-1.21-3.07s.77-2.18,1.04-2.48c.27-.3,.59-.37,.79-.37Z"/>
</svg>