<?xml version="1.0" encoding="UTF-8"?>
<svg id="Layer_1" data-name="Layer 1" xmlns="http://www.w3.org/2000/svg" viewBox="0 0 975 171">
  <defs>
    <style>
      .cls-1 {
        fill: none;
        stroke: #eee;
      }
    </style>
  </defs>
  <path class="cls-1" d="M169,57.67L113.33,2m55.67,55.67V2h-55.67m55.67,55.67h-55.67m55.67,0v55.67M113.33,2H57.67m55.67,0V57.67m0,0L57.67,2m55.67,55.67H57.67m55.67,0v55.67m0-55.67l55.67,55.67M57.67,2H2L57.67,57.67m0-55.67V57.67m0,0l55.67,55.67m0,0l55.67,55.67v-55.67m-55.67,0h55.67"/>
  <circle class="cls-1" cx="252.5" cy="85.5" r="83.5"/>
  <path class="cls-1" d="M336,169L503,2h-167V169Z"/>
  <path class="cls-1" d="M503,113.33l55.67,55.67m-55.67-55.67v55.67h55.67m-55.67-55.67h55.67m-55.67,0V57.67m55.67,111.33h55.67m-55.67,0v-55.67m0,0l55.67,55.67m-55.67-55.67h55.67m-55.67,0V57.67m0,55.67l-55.67-55.67m111.33,111.33h55.67l-55.67-55.67m0,55.67v-55.67m0,0l-55.67-55.67m0,0L503,2V57.67m55.67,0h-55.67"/>
  <path class="cls-1" d="M837,2l-167,167h167V2Z"/>
  <path class="cls-1" d="M837,57.67L892.67,2m-55.67,55.67V2h55.67m-55.67,55.67h55.67m-55.67,0v55.67M892.67,2h55.67m-55.67,0V57.67m0,0L948.33,2m-55.67,55.67h55.67m-55.67,0v55.67m0-55.67l-55.67,55.67M948.33,2h55.67l-55.67,55.67m0-55.67V57.67m0,0l-55.67,55.67m0,0l-55.67,55.67v-55.67m55.67,0h-55.67"/>
</svg>