<svg width="1002" height="600" viewBox="0 0 1002 600" fill="none" xmlns="http://www.w3.org/2000/svg">
<path d="M402 133.128L468.565 199.693H402V133.128Z" fill="#007C62"/>
<path d="M468.562 133.128L535.128 199.693H468.562V133.128Z" fill="#007C62"/>
<path d="M535.129 133.128L601.694 199.693H535.129V133.128Z" fill="#007C62"/>
<path d="M468.562 66.5674L535.128 133.133H468.562V66.5674Z" fill="#007C62"/>
<path d="M402 66.5674L468.565 133.133H402V66.5674Z" fill="#007C62"/>
<path d="M402 0L468.565 66.5654H402V0Z" fill="#007C62"/>
<path d="M602 533.128L668.565 599.693H602V533.128Z" fill="#007C62"/>
<path d="M668.562 533.128L735.128 599.693H668.562V533.128Z" fill="#007C62"/>
<path d="M735.129 533.128L801.694 599.693H735.129V533.128Z" fill="#007C62"/>
<path d="M668.562 466.567L735.128 533.133H668.562V466.567Z" fill="#007C62"/>
<path d="M602 466.567L668.565 533.133H602V466.567Z" fill="#007C62"/>
<path d="M602 400L668.565 466.565H602V400Z" fill="#007C62"/>
<path d="M200 533.128L266.565 599.693H200V533.128Z" fill="#007C62"/>
<path d="M266.562 533.128L333.128 599.693H266.562V533.128Z" fill="#007C62"/>
<path d="M333.129 533.128L399.694 599.693H333.129V533.128Z" fill="#007C62"/>
<path d="M266.562 466.567L333.128 533.133H266.562V466.567Z" fill="#007C62"/>
<path d="M200 466.567L266.565 533.133H200V466.567Z" fill="#007C62"/>
<path d="M200 400L266.565 466.565H200V400Z" fill="#007C62"/>
<path d="M402.211 201L200 399.246H402.211V201Z" fill="#004C3A"/>
<path d="M803.906 1.75391L601.696 200H803.906V1.75391Z" fill="#004C3A"/>
<path d="M1002 401.37L799.789 599.616H1002V401.37Z" fill="#004C3A"/>
<path d="M1001.7 266.565L935.134 200H1001.7V266.565Z" fill="#F8AE01"/>
<path d="M935.129 266.565L868.564 200H935.129V266.565Z" fill="#F8AE01"/>
<path d="M868.566 266.565L802.001 200H868.566V266.565Z" fill="#F8AE01"/>
<path d="M935.129 333.129L868.564 266.564H935.129V333.129Z" fill="#F8AE01"/>
<path d="M1001.7 333.129L935.134 266.564H1001.7V333.129Z" fill="#F8AE01"/>
<path d="M1001.7 399.696L935.134 333.131H1001.7V399.696Z" fill="#F8AE01"/>
<path d="M601.699 266.565L535.134 200H601.699V266.565Z" fill="#F8AE01"/>
<path d="M535.137 266.565L468.571 200H535.137V266.565Z" fill="#F8AE01"/>
<path d="M468.566 266.565L402.001 200H468.566V266.565Z" fill="#F8AE01"/>
<path d="M535.137 333.129L468.571 266.564H535.137V333.129Z" fill="#F8AE01"/>
<path d="M601.699 333.129L535.134 266.564H601.699V333.129Z" fill="#F8AE01"/>
<path d="M601.699 399.693L535.134 333.128H601.699V399.693Z" fill="#F8AE01"/>
<path d="M401.699 66.5654L335.134 7.62939e-05H401.699V66.5654Z" fill="#F8AE01"/>
<path d="M335.137 66.5654L268.571 7.62939e-05H335.137V66.5654Z" fill="#F8AE01"/>
<path d="M268.566 66.5654L202.001 7.62939e-05H268.566V66.5654Z" fill="#F8AE01"/>
<path d="M335.137 133.129L268.571 66.5636H335.137V133.129Z" fill="#F8AE01"/>
<path d="M401.699 133.129L335.134 66.5636H401.699V133.129Z" fill="#F8AE01"/>
<path d="M401.699 199.693L335.134 133.128H401.699V199.693Z" fill="#F8AE01"/>
<path d="M1003.61 66.5654L937.04 7.62939e-05H1003.61V66.5654Z" fill="#5FB470"/>
<path d="M937.035 66.5654L870.47 7.62939e-05H937.035V66.5654Z" fill="#5FB470"/>
<path d="M870.473 66.5654L803.907 7.62939e-05H870.473V66.5654Z" fill="#5FB470"/>
<path d="M937.035 133.129L870.47 66.5636H937.035V133.129Z" fill="#5FB470"/>
<path d="M1003.61 133.129L937.04 66.5636H1003.61V133.129Z" fill="#5FB470"/>
<path d="M1003.61 199.696L937.04 133.131H1003.61V199.696Z" fill="#5FB470"/>
<path d="M199.699 533.131L133.134 599.696H199.699V533.131Z" fill="#5FB470"/>
<path d="M133.129 533.131L66.5636 599.696H133.129V533.131Z" fill="#5FB470"/>
<path d="M66.5664 533.131L0.00105286 599.696H66.5664V533.131Z" fill="#5FB470"/>
<path d="M133.129 466.567L66.5636 533.133H133.129V466.567Z" fill="#5FB470"/>
<path d="M199.699 466.567L133.134 533.133H199.699V466.567Z" fill="#5FB470"/>
<path d="M199.699 400L133.134 466.565H199.699V400Z" fill="#5FB470"/>
<path d="M601.699 466.563L535.134 399.998H601.699V466.563Z" fill="#5FB470"/>
<path d="M535.137 466.563L468.571 399.998H535.137V466.563Z" fill="#5FB470"/>
<path d="M468.566 466.563L402.001 399.998H468.566V466.563Z" fill="#5FB470"/>
<path d="M535.137 533.127L468.571 466.562H535.137V533.127Z" fill="#5FB470"/>
<path d="M601.699 533.127L535.134 466.562H601.699V533.127Z" fill="#5FB470"/>
<path d="M601.699 599.691L535.134 533.126H601.699V599.691Z" fill="#5FB470"/>
<path d="M802 266.87L735.435 200.305H802V266.87Z" fill="#5FB470"/>
<path d="M735.43 266.87L668.864 200.305H735.43V266.87Z" fill="#5FB470"/>
<path d="M668.867 266.87L602.302 200.305H668.867V266.87Z" fill="#5FB470"/>
<path d="M735.43 333.434L668.864 266.868H735.43V333.434Z" fill="#5FB470"/>
<path d="M802 333.434L735.435 266.868H802V333.434Z" fill="#5FB470"/>
<path d="M802 400.001L735.435 333.436H802V400.001Z" fill="#5FB470"/>
</svg>
