<svg width="570" height="342" viewBox="0 0 570 342" fill="none" xmlns="http://www.w3.org/2000/svg">
<path d="M228 75.884L265.943 113.826H228V75.884Z" fill="#007C62"/>
<path d="M265.942 75.884L303.885 113.826H265.942V75.884Z" fill="#007C62"/>
<path d="M303.885 75.884L341.827 113.826H303.885V75.884Z" fill="#007C62"/>
<path d="M265.942 37.9441L303.885 75.8863H265.942V37.9441Z" fill="#007C62"/>
<path d="M228 37.9441L265.943 75.8863H228V37.9441Z" fill="#007C62"/>
<path d="M228 0.000732422L265.943 37.943H228V0.000732422Z" fill="#007C62"/>
<path d="M341.999 303.883L379.941 341.825H341.999V303.883Z" fill="#007C62"/>
<path d="M379.94 303.883L417.883 341.825H379.94V303.883Z" fill="#007C62"/>
<path d="M417.883 303.883L455.825 341.825H417.883V303.883Z" fill="#007C62"/>
<path d="M379.94 265.943L417.883 303.885H379.94V265.943Z" fill="#007C62"/>
<path d="M341.999 265.943L379.941 303.885H341.999V265.943Z" fill="#007C62"/>
<path d="M341.999 228L379.941 265.942H341.999V228Z" fill="#007C62"/>
<path d="M114 189.883L151.942 227.826H114V189.883Z" fill="#007C62"/>
<path d="M151.941 189.883L189.884 227.826H151.941V189.883Z" fill="#007C62"/>
<path d="M189.884 189.883L227.827 227.826H189.884V189.883Z" fill="#007C62"/>
<path d="M151.941 151.943L189.884 189.886H151.941V151.943Z" fill="#007C62"/>
<path d="M114 151.943L151.942 189.886H114V151.943Z" fill="#007C62"/>
<path d="M114 114L151.942 151.942H114V114Z" fill="#007C62"/>
<path d="M228 229L112.74 342H228V229Z" fill="#004C3A"/>
<path d="M456 0.999756L340.74 114H456V0.999756Z" fill="#004C3A"/>
<path d="M570 228.781L454.74 341.781H570V228.781Z" fill="#004C3A"/>
<path d="M569.827 151.768L531.885 113.825H569.827V151.768Z" fill="#F8AE01"/>
<path d="M531.885 151.768L493.943 113.825H531.885V151.768Z" fill="#F8AE01"/>
<path d="M493.942 151.768L456 113.825H493.942V151.768Z" fill="#F8AE01"/>
<path d="M531.885 189.709L493.943 151.767H531.885V189.709Z" fill="#F8AE01"/>
<path d="M569.827 189.709L531.885 151.767H569.827V189.709Z" fill="#F8AE01"/>
<path d="M569.827 227.652L531.885 189.71H569.827V227.652Z" fill="#F8AE01"/>
<path d="M341.827 151.942L303.885 114H341.827V151.942Z" fill="#F8AE01"/>
<path d="M303.885 151.942L265.943 114H303.885V151.942Z" fill="#F8AE01"/>
<path d="M265.942 151.942L228 114H265.942V151.942Z" fill="#F8AE01"/>
<path d="M303.885 189.883L265.943 151.941H303.885V189.883Z" fill="#F8AE01"/>
<path d="M341.827 189.883L303.885 151.941H341.827V189.883Z" fill="#F8AE01"/>
<path d="M341.827 227.825L303.885 189.883H341.827V227.825Z" fill="#F8AE01"/>
<path d="M113.827 37.9426L75.8849 0.000377655H113.827V37.9426Z" fill="#F8AE01"/>
<path d="M75.8848 37.9426L37.9425 0.000377655H75.8848V37.9426Z" fill="#F8AE01"/>
<path d="M37.9424 37.9426L0.000133514 0.000377655H37.9424V37.9426Z" fill="#F8AE01"/>
<path d="M75.8848 75.8838L37.9425 37.9415H75.8848V75.8838Z" fill="#F8AE01"/>
<path d="M113.827 75.8838L75.8849 37.9415H113.827V75.8838Z" fill="#F8AE01"/>
<path d="M113.827 113.826L75.8849 75.8837H113.827V113.826Z" fill="#F8AE01"/>
<path d="M569.827 37.9421L531.885 -0.000110626H569.827V37.9421Z" fill="white"/>
<path d="M531.885 37.9421L493.943 -0.000110626H531.885V37.9421Z" fill="white"/>
<path d="M493.942 37.9421L456 -0.000110626H493.942V37.9421Z" fill="white"/>
<path d="M531.885 75.8835L493.943 37.9413H531.885V75.8835Z" fill="white"/>
<path d="M569.827 75.8835L531.885 37.9413H569.827V75.8835Z" fill="white"/>
<path d="M569.827 113.827L531.885 75.8847H569.827V113.827Z" fill="white"/>
<path d="M341.827 265.941L303.885 227.999H341.827V265.941Z" fill="white"/>
<path d="M303.885 265.941L265.943 227.999H303.885V265.941Z" fill="white"/>
<path d="M265.942 265.941L228 227.999H265.942V265.941Z" fill="white"/>
<path d="M303.885 303.882L265.943 265.94H303.885V303.882Z" fill="white"/>
<path d="M341.827 303.882L303.885 265.94H341.827V303.882Z" fill="white"/>
<path d="M341.827 341.824L303.885 303.882H341.827V341.824Z" fill="white"/>
<path d="M456 151.941L418.058 113.999H456V151.941Z" fill="white"/>
<path d="M418.058 151.941L380.115 113.999H418.058V151.941Z" fill="white"/>
<path d="M380.115 151.941L342.173 113.999H380.115V151.941Z" fill="white"/>
<path d="M418.058 189.883L380.115 151.941H418.058V189.883Z" fill="white"/>
<path d="M456 189.883L418.058 151.941H456V189.883Z" fill="white"/>
<path d="M456 227.826L418.058 189.884H456V227.826Z" fill="white"/>
</svg>
