<svg width="570" height="342" viewBox="0 0 570 342" fill="none" xmlns="http://www.w3.org/2000/svg">
<path d="M228 75.8838L265.942 113.826H228V75.8838Z" fill="#007C62"/>
<path d="M265.941 75.8838L303.884 113.826H265.941V75.8838Z" fill="#007C62"/>
<path d="M303.883 75.8838L341.825 113.826H303.883V75.8838Z" fill="#007C62"/>
<path d="M265.941 37.9443L303.884 75.8866H265.941V37.9443Z" fill="#007C62"/>
<path d="M228 37.9443L265.942 75.8866H228V37.9443Z" fill="#007C62"/>
<path d="M228 0.000976562L265.942 37.9432H228V0.000976562Z" fill="#007C62"/>
<path d="M342 303.883L379.942 341.825H342V303.883Z" fill="#007C62"/>
<path d="M379.941 303.883L417.884 341.825H379.941V303.883Z" fill="#007C62"/>
<path d="M417.883 303.883L455.825 341.825H417.883V303.883Z" fill="#007C62"/>
<path d="M379.941 265.943L417.884 303.886H379.941V265.943Z" fill="#007C62"/>
<path d="M342 265.943L379.942 303.886H342V265.943Z" fill="#007C62"/>
<path d="M342 228L379.942 265.942H342V228Z" fill="#007C62"/>
<path d="M114 189.883L151.942 227.825H114V189.883Z" fill="#007C62"/>
<path d="M151.941 189.883L189.884 227.825H151.941V189.883Z" fill="#007C62"/>
<path d="M189.883 189.883L227.825 227.825H189.883V189.883Z" fill="#007C62"/>
<path d="M151.941 151.943L189.884 189.886H151.941V151.943Z" fill="#007C62"/>
<path d="M114 151.943L151.942 189.886H114V151.943Z" fill="#007C62"/>
<path d="M114 114L151.942 151.942H114V114Z" fill="#007C62"/>
<path d="M228 229L112.74 342H228V229Z" fill="#004C3A"/>
<path d="M456 1L340.74 114H456V1Z" fill="#004C3A"/>
<path d="M570 228.781L454.74 341.781H570V228.781Z" fill="#004C3A"/>
<path d="M569.828 151.768L531.886 113.825H569.828V151.768Z" fill="#F8AE01"/>
<path d="M531.883 151.768L493.941 113.825H531.883V151.768Z" fill="#F8AE01"/>
<path d="M493.941 151.768L455.999 113.825H493.941V151.768Z" fill="#F8AE01"/>
<path d="M531.883 189.709L493.941 151.767H531.883V189.709Z" fill="#F8AE01"/>
<path d="M569.828 189.709L531.886 151.767H569.828V189.709Z" fill="#F8AE01"/>
<path d="M569.828 227.652L531.886 189.71H569.828V227.652Z" fill="#F8AE01"/>
<path d="M341.828 151.942L303.886 114H341.828V151.942Z" fill="#F8AE01"/>
<path d="M303.887 151.942L265.944 114H303.887V151.942Z" fill="#F8AE01"/>
<path d="M265.941 151.942L227.999 114H265.941V151.942Z" fill="#F8AE01"/>
<path d="M303.887 189.884L265.944 151.942H303.887V189.884Z" fill="#F8AE01"/>
<path d="M341.828 189.884L303.886 151.942H341.828V189.884Z" fill="#F8AE01"/>
<path d="M341.828 227.825L303.886 189.883H341.828V227.825Z" fill="#F8AE01"/>
<path d="M113.828 37.9434L75.8859 0.0011096H113.828V37.9434Z" fill="#F8AE01"/>
<path d="M75.8867 37.9434L37.9445 0.0011096H75.8867V37.9434Z" fill="#F8AE01"/>
<path d="M37.9414 37.9434L-0.000843525 0.0011096H37.9414V37.9434Z" fill="#F8AE01"/>
<path d="M75.8867 75.8848L37.9445 37.9425H75.8867V75.8848Z" fill="#F8AE01"/>
<path d="M113.828 75.8848L75.8859 37.9425H113.828V75.8848Z" fill="#F8AE01"/>
<path d="M113.828 113.826L75.8859 75.8839H113.828V113.826Z" fill="#F8AE01"/>
<path d="M569.828 37.9424L531.886 0.000133038H569.828V37.9424Z" fill="#5FB470"/>
<path d="M531.883 37.9424L493.941 0.000133038H531.883V37.9424Z" fill="#5FB470"/>
<path d="M493.941 37.9424L455.999 0.000133038H493.941V37.9424Z" fill="#5FB470"/>
<path d="M531.883 75.8838L493.941 37.9415H531.883V75.8838Z" fill="#5FB470"/>
<path d="M569.828 75.8838L531.886 37.9415H569.828V75.8838Z" fill="#5FB470"/>
<path d="M569.828 113.827L531.886 75.8849H569.828V113.827Z" fill="#5FB470"/>
<path d="M341.828 265.941L303.886 227.999H341.828V265.941Z" fill="#5FB470"/>
<path d="M303.887 265.941L265.944 227.999H303.887V265.941Z" fill="#5FB470"/>
<path d="M265.941 265.941L227.999 227.999H265.941V265.941Z" fill="#5FB470"/>
<path d="M303.887 303.882L265.944 265.94H303.887V303.882Z" fill="#5FB470"/>
<path d="M341.828 303.882L303.886 265.94H341.828V303.882Z" fill="#5FB470"/>
<path d="M341.828 341.824L303.886 303.882H341.828V341.824Z" fill="#5FB470"/>
<path d="M456 151.941L418.058 113.999H456V151.941Z" fill="#5FB470"/>
<path d="M418.055 151.941L380.112 113.999H418.055V151.941Z" fill="#5FB470"/>
<path d="M380.113 151.941L342.171 113.999H380.113V151.941Z" fill="#5FB470"/>
<path d="M418.055 189.883L380.112 151.941H418.055V189.883Z" fill="#5FB470"/>
<path d="M456 189.883L418.058 151.941H456V189.883Z" fill="#5FB470"/>
<path d="M456 227.826L418.058 189.884H456V227.826Z" fill="#5FB470"/>
</svg>
