<svg xmlns="http://www.w3.org/2000/svg" viewBox="0 0 842.41 142.41" vector-effect="non-scaling-stroke">
  <defs>
    <style>
      .cls-1 {
        fill: none;
        stroke: #eee;
      }
    </style>
  </defs>
  <path class="cls-1"
    d="M141.21,47.87L94.54,1.21m46.67,46.67V1.21h-46.67m46.67,46.67h-46.67m46.67,0v46.67M94.54,1.21H47.87m46.67,0V47.87m0,0L47.87,1.21m46.67,46.67H47.87m46.67,0v46.67m0-46.67l46.67,46.67M47.87,1.21H1.21L47.87,47.87m0-46.67V47.87m0,0l46.67,46.67m0,0l46.67,46.67v-46.67m-46.67,0h46.67" />
  <circle class="cls-1" cx="211.21" cy="71.21" r="70" />
  <path class="cls-1" d="M281.21,141.21L421.21,1.21h-140V141.21Z" />
  <path class="cls-1"
    d="M421.21,94.54l46.67,46.67m-46.67-46.67v46.67h46.67m-46.67-46.67h46.67m-46.67,0V47.87m46.67,93.33h46.67m-46.67,0v-46.67m0,0l46.67,46.67m-46.67-46.67h46.67m-46.67,0V47.87m0,46.67l-46.67-46.67m93.33,93.33h46.67l-46.67-46.67m0,46.67v-46.67m0,0l-46.67-46.67m0,0L421.21,1.21V47.87m46.67,0h-46.67" />
  <path class="cls-1" d="M701.21,1.21l-140,140h140V1.21Z" />
  <path class="cls-1"
    d="M701.21,47.87L747.87,1.21m-46.67,46.67V1.21h46.67m-46.67,46.67h46.67m-46.67,0v46.67M747.87,1.21h46.67m-46.67,0V47.87m0,0L794.54,1.21m-46.67,46.67h46.67m-46.67,0v46.67m0-46.67l-46.67,46.67M794.54,1.21h46.67l-46.67,46.67m0-46.67V47.87m0,0l-46.67,46.67m0,0l-46.67,46.67v-46.67m46.67,0h-46.67" />
</svg>