<?xml version="1.0" encoding="UTF-8"?>
<svg id="Layer_1" data-name="Layer 1" xmlns="http://www.w3.org/2000/svg" viewBox="0 0 1322 228">
  <defs>
    <style>
      .cls-1 {
        fill: none;
        stroke: #eee;
      }
    </style>
  </defs>
  <path class="cls-1" d="M226,76.67L151.33,2m74.67,74.67V2h-74.67m74.67,74.67h-74.67m74.67,0v74.67M151.33,2H76.67m74.67,0V76.67m0,0L76.67,2m74.67,74.67H76.67m74.67,0v74.67m0-74.67l74.67,74.67M76.67,2H2L76.67,76.67m0-74.67V76.67m0,0l74.67,74.67m0,0l74.67,74.67v-74.67m-74.67,0h74.67"/>
  <circle class="cls-1" cx="338" cy="114" r="112"/>
  <path class="cls-1" d="M450,226L674,2h-224V226Z"/>
  <path class="cls-1" d="M674,151.88l74.67,74.94m-74.67-74.94v74.94h74.67m-74.67-74.94h74.67m-74.67,0V76.94m74.67,149.88h74.67m-74.67,0v-74.94m0,0l74.67,74.94m-74.67-74.94h74.67m-74.67,0V76.94m0,74.94l-74.67-74.94m149.33,149.88h74.67l-74.67-74.94m0,74.94v-74.94m0,0l-74.67-74.94m0,0L674,2V76.94m74.67,0h-74.67"/>
  <path class="cls-1" d="M1122,2l-224,224.83h224V2Z"/>
  <path class="cls-1" d="M1122,76.67L1196.67,2m-74.67,74.67V2h74.67m-74.67,74.67h74.67m-74.67,0v74.67M1196.67,2h74.66m-74.66,0V76.67m0,0L1271.33,2m-74.66,74.67h74.66m-74.66,0v74.67m0-74.67l-74.67,74.67M1271.33,2h74.67l-74.67,74.67m0-74.67V76.67m0,0l-74.66,74.67m0,0l-74.67,74.67v-74.67m74.67,0h-74.67"/>
</svg>