<?xml version="1.0" encoding="UTF-8"?>
<svg id="Layer_1" data-name="Layer 1" xmlns="http://www.w3.org/2000/svg" viewBox="0 0 231 73">
  <defs>
    <style>
      .cls-1 {
        fill: none;
        stroke: #eee;
      }
    </style>
  </defs>
  <path class="cls-1" d="M75,24.33L50.67,0m24.33,24.33V0h-24.33m24.33,24.33h-24.33m24.33,0v24.33M50.67,0H26.33M50.67,0V24.33m0,0L26.33,0m24.33,24.33H26.33m24.33,0v24.33m0-24.33l24.33,24.33M26.33,0H2L26.33,24.33M26.33,0V24.33m0,0l24.33,24.33m0,0l24.33,24.33v-24.33m-24.33,0h24.33"/>
  <circle class="cls-1" cx="111.5" cy="36.5" r="36.5"/>
  <path class="cls-1" d="M148,73L221,0h-73V73Z"/>
  <path class="cls-1" d="M221,48.67l24.33,24.33m-24.33-24.33v24.33h24.33m-24.33-24.33h24.33m-24.33,0V24.33m24.33,48.67h24.33m-24.33,0v-24.33m0,0l24.33,24.33m-24.33-24.33h24.33m-24.33,0V24.33m0,24.33l-24.33-24.33m48.67,48.67h24.33l-24.33-24.33m0,24.33v-24.33m0,0l-24.33-24.33m0,0L221,0V24.33m24.33,0h-24.33"/>
</svg>