<svg width="304" height="73" viewBox="0 0 304 73" fill="none" xmlns="http://www.w3.org/2000/svg">
<path d="M75 24.3333L50.6667 -1.90735e-06M75 24.3333V-1.90735e-06H50.6667M75 24.3333H50.6667M75 24.3333V48.6667M50.6667 -1.90735e-06H26.3333M50.6667 -1.90735e-06L50.6667 24.3333M50.6667 24.3333L26.3333 -1.90735e-06M50.6667 24.3333H26.3333M50.6667 24.3333V48.6667M50.6667 24.3333L75 48.6667M26.3333 -1.90735e-06H2L26.3333 24.3333M26.3333 -1.90735e-06V24.3333M26.3333 24.3333L50.6667 48.6667M50.6667 48.6667L75 73V48.6667M50.6667 48.6667H75" stroke="#EEEEEE"/>
<circle cx="111.5" cy="36.5" r="36.5" stroke="#EEEEEE"/>
<path d="M148 73L221 -1.90735e-06H148V73Z" stroke="#EEEEEE"/>
<path d="M221 48.6667L245.333 73M221 48.6667V73H245.333M221 48.6667H245.333M221 48.6667V24.3333M245.333 73H269.667M245.333 73V48.6667M245.333 48.6667L269.667 73M245.333 48.6667H269.667M245.333 48.6667V24.3333M245.333 48.6667L221 24.3333M269.667 73H294L269.667 48.6667M269.667 73L269.667 48.6667M269.667 48.6667L245.333 24.3333M245.333 24.3333L221 -1.90735e-06V24.3333M245.333 24.3333H221" stroke="#EEEEEE"/>
<path d="M367 0L294 73H367V0Z" stroke="#EEEEEE"/>
</svg>
